<svg
  aria-hidden="true"
  focusable="false"
  role="img"
  viewBox="0 0 350 352"
  xmlns="http://www.w3.org/2000/svg"
>
  <path d="m.056427 186.749c43.704073 0 84.788773 17.072 115.664573 48.123 30.931 31.052 47.961 72.412 47.961 116.441h67.35c0-127.885-103.619-231.921-230.975573-231.921zm.105972-119.3995c155.760601 0 282.487601 127.4195 282.487601 284.0485h67.35c0-193.774-156.946-351.398-349.837601-351.398zm93.134201 236.9975c0 25.757-20.8918 46.649-46.6483 46.649s-46.6483-20.885-46.6483-46.649c0-25.77 20.8848-46.648 46.6412-46.648 25.7565 0 46.6554 20.878 46.6554 46.648z" fill="currentColor"/>
</svg>